<svg width="1024" height="1024" viewBox="0 0 1024 1024" fill="none" xmlns="http://www.w3.org/2000/svg">
<g clip-path="url(#clip0_60_425)">
<rect width="1024" height="1024" fill="#DFDCFF"/>
<g clip-path="url(#clip1_60_425)">
<g filter="url(#filter0_d_60_425)">
<rect x="-231.592" y="562.159" width="326.183" height="217.455" rx="16" transform="rotate(-45 -231.592 562.159)" fill="url(#paint0_linear_60_425)"/>
</g>
<g filter="url(#filter1_d_60_425)">
<rect x="-51.3738" y="742.377" width="326.183" height="217.455" rx="16" transform="rotate(-45 -51.3738 742.377)" fill="url(#paint1_linear_60_425)"/>
<path d="M134.675 713.552L136.401 711.825C137.004 712.539 137.407 713.31 137.61 714.139C137.808 714.963 137.771 715.805 137.499 716.666C137.228 717.527 136.687 718.362 135.877 719.173C135.255 719.794 134.585 720.243 133.867 720.519C133.144 720.791 132.401 720.899 131.637 720.844C130.868 720.784 130.097 720.556 129.323 720.16C128.555 719.76 127.809 719.198 127.086 718.475L126.251 717.64C125.528 716.917 124.968 716.169 124.573 715.395C124.181 714.617 123.958 713.842 123.903 713.068C123.843 712.29 123.953 711.54 124.234 710.817C124.52 710.09 124.978 709.411 125.608 708.78C126.409 707.979 127.233 707.45 128.08 707.192C128.928 706.934 129.763 706.913 130.587 707.13C131.416 707.341 132.201 707.749 132.942 708.352L131.215 710.078C130.737 709.692 130.265 709.422 129.8 709.27C129.34 709.114 128.879 709.105 128.419 709.243C127.954 709.376 127.48 709.685 126.996 710.168C126.6 710.564 126.329 710.983 126.181 711.425C126.034 711.867 126.004 712.329 126.092 712.813C126.179 713.296 126.382 713.798 126.699 714.318C127.017 714.829 127.443 715.352 127.977 715.886L128.826 716.735C129.333 717.241 129.837 717.658 130.338 717.985C130.84 718.302 131.331 718.517 131.809 718.627C132.293 718.733 132.76 718.721 133.211 718.593C133.662 718.464 134.09 718.197 134.496 717.791C134.988 717.299 135.308 716.822 135.455 716.362C135.607 715.897 135.612 715.437 135.469 714.981C135.326 714.516 135.062 714.04 134.675 713.552ZM143.797 707.979L140.234 704.416C139.967 704.149 139.688 703.967 139.398 703.87C139.108 703.774 138.811 703.771 138.508 703.863C138.208 703.951 137.911 704.142 137.617 704.437C137.345 704.708 137.156 704.989 137.05 705.279C136.945 705.569 136.915 705.848 136.961 706.115C137.007 706.382 137.129 706.614 137.327 706.812L135.669 708.469C135.375 708.175 135.161 707.818 135.027 707.399C134.894 706.98 134.855 706.527 134.91 706.039C134.965 705.551 135.119 705.056 135.372 704.554C135.626 704.052 135.987 703.566 136.457 703.097C137.018 702.535 137.61 702.132 138.231 701.888C138.857 701.64 139.486 701.582 140.116 701.716C140.747 701.84 141.348 702.188 141.919 702.759L145.24 706.08C145.581 706.421 145.91 706.704 146.228 706.929C146.545 707.146 146.849 707.307 147.139 707.413L147.25 707.523L145.544 709.229C145.286 709.128 144.996 708.962 144.674 708.732C144.352 708.492 144.059 708.241 143.797 707.979ZM140.993 704.692L142.036 705.707L140.842 706.902C140.533 707.21 140.291 707.512 140.116 707.806C139.937 708.096 139.824 708.375 139.778 708.642C139.732 708.909 139.748 709.16 139.826 709.395C139.905 709.629 140.043 709.846 140.241 710.044C140.439 710.242 140.667 710.377 140.924 710.451C141.178 710.52 141.438 710.513 141.705 710.43C141.976 710.343 142.239 710.173 142.492 709.919C142.833 709.579 143.06 709.213 143.176 708.821C143.291 708.421 143.321 708.046 143.265 707.696C143.205 707.341 143.088 707.067 142.913 706.874L144.191 707.074C144.324 707.318 144.432 707.615 144.515 707.965C144.598 708.315 144.63 708.697 144.612 709.111C144.593 709.517 144.497 709.931 144.322 710.354C144.151 710.773 143.873 711.176 143.486 711.563C142.998 712.051 142.467 712.389 141.891 712.578C141.311 712.762 140.747 712.797 140.199 712.682C139.647 712.562 139.159 712.29 138.735 711.867C138.339 711.471 138.063 711.047 137.907 710.596C137.75 710.136 137.713 709.657 137.796 709.16C137.884 708.658 138.086 708.142 138.404 707.613C138.717 707.079 139.145 706.54 139.688 705.997L140.993 704.692ZM144.329 698.346L150.378 704.395L148.714 706.059L141.242 698.588L142.83 697L144.329 698.346ZM145.144 694.59L146.677 696.15C146.557 696.233 146.433 696.33 146.304 696.44C146.179 696.546 146.06 696.657 145.945 696.772C145.659 697.057 145.45 697.349 145.316 697.649C145.178 697.943 145.111 698.24 145.116 698.539C145.121 698.829 145.19 699.119 145.323 699.409C145.457 699.699 145.648 699.983 145.896 700.259L145.544 700.666C145.074 700.197 144.685 699.716 144.377 699.223C144.069 698.73 143.855 698.24 143.735 697.752C143.62 697.26 143.617 696.788 143.728 696.337C143.843 695.881 144.087 695.467 144.46 695.094C144.561 694.992 144.679 694.893 144.812 694.797C144.95 694.695 145.061 694.626 145.144 694.59ZM156.579 695.101L147.519 686.041L149.19 684.37L159.797 694.976L158.284 696.489L156.579 695.101ZM149.611 697.856L149.466 697.711C148.9 697.145 148.451 696.562 148.12 695.964C147.784 695.361 147.574 694.764 147.491 694.175C147.404 693.581 147.452 693.013 147.636 692.47C147.816 691.922 148.134 691.42 148.589 690.964C149.04 690.513 149.524 690.205 150.039 690.039C150.555 689.873 151.096 689.834 151.662 689.922C152.224 690.004 152.802 690.2 153.395 690.508C153.985 690.812 154.583 691.208 155.191 691.696L155.653 692.159C156.128 692.753 156.514 693.342 156.814 693.927C157.113 694.511 157.304 695.084 157.387 695.646C157.47 696.208 157.426 696.749 157.256 697.269C157.09 697.784 156.779 698.27 156.323 698.726C155.872 699.177 155.37 699.49 154.818 699.665C154.27 699.835 153.699 699.877 153.105 699.789C152.512 699.702 151.918 699.495 151.324 699.168C150.725 698.836 150.155 698.399 149.611 697.856ZM151.13 696.047L151.275 696.192C151.616 696.532 151.964 696.82 152.318 697.055C152.677 697.285 153.036 697.446 153.395 697.538C153.75 697.626 154.097 697.628 154.438 697.545C154.779 697.453 155.099 697.257 155.398 696.958C155.775 696.581 156.003 696.187 156.082 695.777C156.16 695.368 156.128 694.953 155.985 694.534C155.842 694.106 155.621 693.692 155.322 693.291L154.072 692.041C153.773 691.797 153.462 691.602 153.14 691.455C152.822 691.303 152.505 691.211 152.187 691.178C151.865 691.141 151.549 691.181 151.241 691.296C150.933 691.402 150.636 691.597 150.35 691.883C150.046 692.186 149.853 692.509 149.77 692.849C149.687 693.19 149.69 693.542 149.777 693.906C149.869 694.265 150.033 694.626 150.267 694.99C150.502 695.354 150.79 695.706 151.13 696.047Z" fill="black"/>
</g>
<g filter="url(#filter2_d_60_425)">
<rect x="128.844" y="922.595" width="326.183" height="217.455" rx="16" transform="rotate(-45 128.844 922.595)" fill="url(#paint2_linear_60_425)"/>
<path d="M314.893 893.77L316.62 892.043C317.223 892.757 317.626 893.528 317.828 894.357C318.026 895.181 317.989 896.023 317.718 896.884C317.446 897.745 316.905 898.58 316.095 899.391C315.473 900.012 314.804 900.461 314.085 900.737C313.363 901.009 312.619 901.117 311.855 901.062C311.086 901.002 310.315 900.774 309.542 900.378C308.773 899.978 308.027 899.416 307.304 898.693L306.469 897.858C305.746 897.135 305.187 896.387 304.791 895.613C304.4 894.835 304.176 894.06 304.121 893.286C304.061 892.508 304.172 891.758 304.452 891.035C304.738 890.308 305.196 889.629 305.827 888.998C306.628 888.197 307.452 887.668 308.299 887.41C309.146 887.152 309.981 887.131 310.805 887.348C311.634 887.559 312.419 887.967 313.16 888.57L311.434 890.296C310.955 889.91 310.483 889.64 310.018 889.488C309.558 889.332 309.097 889.323 308.637 889.461C308.172 889.594 307.698 889.903 307.215 890.386C306.819 890.782 306.547 891.201 306.4 891.643C306.252 892.085 306.223 892.547 306.31 893.031C306.397 893.514 306.6 894.016 306.918 894.536C307.235 895.047 307.661 895.57 308.195 896.104L309.044 896.953C309.551 897.459 310.055 897.876 310.557 898.203C311.059 898.52 311.549 898.735 312.028 898.845C312.511 898.951 312.978 898.939 313.429 898.811C313.881 898.682 314.309 898.415 314.714 898.01C315.206 897.517 315.526 897.04 315.674 896.58C315.826 896.115 315.83 895.655 315.687 895.199C315.545 894.734 315.28 894.258 314.893 893.77ZM324.015 888.197L320.452 884.634C320.185 884.367 319.907 884.185 319.617 884.088C319.327 883.992 319.03 883.989 318.726 884.081C318.427 884.169 318.13 884.36 317.835 884.655C317.563 884.926 317.375 885.207 317.269 885.497C317.163 885.787 317.133 886.066 317.179 886.333C317.225 886.6 317.347 886.832 317.545 887.03L315.888 888.687C315.593 888.393 315.379 888.036 315.245 887.617C315.112 887.198 315.073 886.745 315.128 886.257C315.183 885.769 315.338 885.274 315.591 884.772C315.844 884.27 316.205 883.785 316.675 883.315C317.237 882.753 317.828 882.35 318.45 882.107C319.076 881.858 319.704 881.8 320.335 881.934C320.965 882.058 321.566 882.406 322.137 882.977L325.458 886.298C325.799 886.639 326.128 886.922 326.446 887.147C326.764 887.364 327.067 887.525 327.357 887.631L327.468 887.741L325.762 889.447C325.505 889.346 325.214 889.18 324.892 888.95C324.57 888.71 324.278 888.459 324.015 888.197ZM321.212 884.91L322.254 885.925L321.06 887.12C320.751 887.428 320.51 887.73 320.335 888.024C320.155 888.314 320.042 888.593 319.996 888.86C319.95 889.127 319.966 889.378 320.045 889.613C320.123 889.847 320.261 890.064 320.459 890.262C320.657 890.46 320.885 890.595 321.143 890.669C321.396 890.738 321.656 890.731 321.923 890.648C322.195 890.561 322.457 890.391 322.71 890.137C323.051 889.797 323.279 889.431 323.394 889.039C323.509 888.639 323.539 888.264 323.484 887.914C323.424 887.559 323.306 887.286 323.131 887.092L324.409 887.292C324.542 887.536 324.651 887.833 324.733 888.183C324.816 888.533 324.849 888.915 324.83 889.329C324.812 889.735 324.715 890.149 324.54 890.572C324.37 890.991 324.091 891.394 323.705 891.781C323.217 892.269 322.685 892.607 322.109 892.796C321.529 892.98 320.965 893.015 320.418 892.9C319.865 892.78 319.377 892.508 318.954 892.085C318.558 891.689 318.282 891.265 318.125 890.814C317.968 890.354 317.932 889.875 318.015 889.378C318.102 888.876 318.305 888.36 318.622 887.831C318.935 887.297 319.363 886.758 319.907 886.215L321.212 884.91ZM324.547 878.564L330.596 884.613L328.932 886.277L321.46 878.806L323.049 877.218L324.547 878.564ZM325.362 874.808L326.895 876.368C326.775 876.451 326.651 876.548 326.522 876.658C326.398 876.764 326.278 876.875 326.163 876.99C325.877 877.275 325.668 877.567 325.534 877.867C325.396 878.161 325.33 878.458 325.334 878.757C325.339 879.047 325.408 879.337 325.541 879.627C325.675 879.918 325.866 880.201 326.114 880.477L325.762 880.884C325.293 880.415 324.904 879.934 324.595 879.441C324.287 878.948 324.073 878.458 323.953 877.97C323.838 877.478 323.836 877.006 323.946 876.555C324.061 876.099 324.305 875.685 324.678 875.312C324.779 875.21 324.897 875.111 325.03 875.015C325.168 874.913 325.279 874.844 325.362 874.808ZM336.797 875.319L327.737 866.259L329.408 864.588L340.015 875.194L338.503 876.707L336.797 875.319ZM329.83 878.074L329.685 877.929C329.118 877.363 328.669 876.78 328.338 876.182C328.002 875.579 327.792 874.982 327.71 874.393C327.622 873.799 327.67 873.231 327.855 872.688C328.034 872.14 328.352 871.638 328.808 871.182C329.259 870.731 329.742 870.423 330.258 870.257C330.773 870.091 331.314 870.052 331.88 870.14C332.442 870.222 333.02 870.418 333.614 870.727C334.203 871.03 334.801 871.426 335.409 871.914L335.872 872.377C336.346 872.971 336.733 873.56 337.032 874.145C337.331 874.729 337.522 875.302 337.605 875.864C337.688 876.426 337.644 876.967 337.474 877.487C337.308 878.002 336.997 878.488 336.542 878.944C336.09 879.395 335.589 879.708 335.036 879.883C334.488 880.053 333.918 880.095 333.324 880.007C332.73 879.92 332.136 879.713 331.542 879.386C330.944 879.054 330.373 878.617 329.83 878.074ZM331.349 876.265L331.494 876.41C331.834 876.75 332.182 877.038 332.536 877.273C332.896 877.503 333.255 877.664 333.614 877.756C333.968 877.844 334.316 877.846 334.656 877.763C334.997 877.671 335.317 877.475 335.616 877.176C335.994 876.799 336.222 876.405 336.3 875.995C336.378 875.586 336.346 875.171 336.203 874.752C336.06 874.324 335.84 873.91 335.54 873.509L334.29 872.259C333.991 872.016 333.68 871.82 333.358 871.673C333.041 871.521 332.723 871.429 332.405 871.396C332.083 871.359 331.768 871.399 331.459 871.514C331.151 871.62 330.854 871.815 330.568 872.101C330.265 872.405 330.071 872.727 329.988 873.067C329.906 873.408 329.908 873.76 329.995 874.124C330.087 874.483 330.251 874.844 330.486 875.208C330.72 875.572 331.008 875.924 331.349 876.265Z" fill="black"/>
</g>
<g filter="url(#filter3_d_60_425)">
<rect x="309.234" y="1102.98" width="326.183" height="217.455" rx="16" transform="rotate(-45 309.234 1102.98)" fill="url(#paint3_linear_60_425)"/>
</g>
<g filter="url(#filter4_d_60_425)">
<rect x="25.5083" y="305.059" width="326.183" height="217.455" rx="16" transform="rotate(-45 25.5083 305.059)" fill="url(#paint4_linear_60_425)"/>
<path d="M211.557 276.233L213.283 274.507C213.887 275.22 214.289 275.992 214.492 276.82C214.69 277.644 214.653 278.487 214.381 279.348C214.11 280.208 213.569 281.044 212.759 281.854C212.137 282.476 211.467 282.925 210.749 283.201C210.026 283.472 209.283 283.581 208.519 283.525C207.75 283.465 206.979 283.238 206.205 282.842C205.437 282.441 204.691 281.88 203.968 281.157L203.133 280.321C202.41 279.598 201.851 278.85 201.455 278.077C201.063 277.299 200.84 276.523 200.785 275.75C200.725 274.972 200.835 274.222 201.116 273.499C201.402 272.771 201.86 272.092 202.49 271.462C203.291 270.661 204.115 270.131 204.963 269.873C205.81 269.616 206.645 269.595 207.469 269.811C208.298 270.023 209.083 270.43 209.824 271.034L208.098 272.76C207.619 272.373 207.147 272.104 206.682 271.952C206.222 271.795 205.761 271.786 205.301 271.924C204.836 272.058 204.362 272.366 203.878 272.85C203.482 273.246 203.211 273.664 203.064 274.106C202.916 274.548 202.886 275.011 202.974 275.494C203.061 275.978 203.264 276.48 203.581 277C203.899 277.511 204.325 278.033 204.859 278.567L205.708 279.417C206.215 279.923 206.719 280.34 207.221 280.666C207.722 280.984 208.213 281.198 208.691 281.309C209.175 281.415 209.642 281.403 210.093 281.274C210.544 281.145 210.972 280.878 211.378 280.473C211.87 279.981 212.19 279.504 212.337 279.044C212.489 278.579 212.494 278.118 212.351 277.663C212.209 277.198 211.944 276.721 211.557 276.233ZM220.679 270.661L217.116 267.098C216.849 266.83 216.57 266.649 216.28 266.552C215.99 266.455 215.693 266.453 215.39 266.545C215.09 266.633 214.793 266.824 214.499 267.118C214.227 267.39 214.038 267.671 213.933 267.961C213.827 268.251 213.797 268.529 213.843 268.796C213.889 269.063 214.011 269.296 214.209 269.494L212.551 271.151C212.257 270.856 212.043 270.5 211.909 270.081C211.776 269.662 211.737 269.208 211.792 268.72C211.847 268.232 212.001 267.737 212.255 267.236C212.508 266.734 212.869 266.248 213.339 265.779C213.9 265.217 214.492 264.814 215.113 264.57C215.739 264.322 216.368 264.264 216.999 264.398C217.629 264.522 218.23 264.869 218.801 265.44L222.122 268.762C222.463 269.102 222.792 269.385 223.11 269.611C223.427 269.827 223.731 269.989 224.021 270.094L224.132 270.205L222.426 271.911C222.168 271.809 221.878 271.644 221.556 271.413C221.234 271.174 220.941 270.923 220.679 270.661ZM217.875 267.374L218.918 268.389L217.724 269.583C217.415 269.892 217.173 270.193 216.999 270.488C216.819 270.778 216.706 271.057 216.66 271.324C216.614 271.591 216.63 271.841 216.708 272.076C216.787 272.311 216.925 272.527 217.123 272.725C217.321 272.923 217.549 273.059 217.806 273.133C218.06 273.202 218.32 273.195 218.587 273.112C218.858 273.025 219.121 272.854 219.374 272.601C219.715 272.26 219.942 271.894 220.058 271.503C220.173 271.103 220.203 270.727 220.147 270.378C220.088 270.023 219.97 269.749 219.795 269.556L221.073 269.756C221.206 270 221.314 270.297 221.397 270.647C221.48 270.997 221.512 271.379 221.494 271.793C221.475 272.198 221.379 272.613 221.204 273.036C221.034 273.455 220.755 273.858 220.368 274.245C219.88 274.733 219.349 275.071 218.773 275.26C218.193 275.444 217.629 275.478 217.081 275.363C216.529 275.244 216.041 274.972 215.617 274.548C215.222 274.152 214.945 273.729 214.789 273.278C214.632 272.817 214.595 272.339 214.678 271.841C214.766 271.34 214.968 270.824 215.286 270.295C215.599 269.761 216.027 269.222 216.57 268.679L217.875 267.374ZM221.211 261.028L227.26 267.077L225.596 268.741L218.124 261.269L219.712 259.681L221.211 261.028ZM222.026 257.271L223.559 258.832C223.439 258.915 223.315 259.011 223.186 259.122C223.061 259.228 222.942 259.338 222.827 259.453C222.541 259.739 222.332 260.031 222.198 260.33C222.06 260.625 221.993 260.922 221.998 261.221C222.003 261.511 222.072 261.801 222.205 262.091C222.339 262.381 222.53 262.664 222.778 262.94L222.426 263.348C221.957 262.878 221.568 262.397 221.259 261.905C220.951 261.412 220.737 260.922 220.617 260.434C220.502 259.941 220.5 259.469 220.61 259.018C220.725 258.563 220.969 258.148 221.342 257.775C221.443 257.674 221.561 257.575 221.694 257.478C221.832 257.377 221.943 257.308 222.026 257.271ZM233.461 257.782L224.401 248.722L226.072 247.051L236.679 257.658L235.166 259.17L233.461 257.782ZM226.493 260.537L226.348 260.392C225.782 259.826 225.333 259.244 225.002 258.645C224.666 258.042 224.456 257.446 224.373 256.857C224.286 256.263 224.334 255.694 224.518 255.151C224.698 254.603 225.016 254.102 225.471 253.646C225.923 253.195 226.406 252.886 226.921 252.721C227.437 252.555 227.978 252.516 228.544 252.603C229.106 252.686 229.684 252.882 230.277 253.19C230.867 253.494 231.465 253.89 232.073 254.378L232.536 254.841C233.01 255.434 233.396 256.024 233.696 256.608C233.995 257.193 234.186 257.766 234.269 258.328C234.352 258.889 234.308 259.43 234.138 259.95C233.972 260.466 233.661 260.952 233.205 261.408C232.754 261.859 232.252 262.172 231.7 262.347C231.152 262.517 230.581 262.558 229.987 262.471C229.394 262.383 228.8 262.176 228.206 261.849C227.607 261.518 227.037 261.081 226.493 260.537ZM228.013 258.728L228.158 258.873C228.498 259.214 228.846 259.502 229.2 259.736C229.559 259.967 229.918 260.128 230.277 260.22C230.632 260.307 230.98 260.31 231.32 260.227C231.661 260.135 231.981 259.939 232.28 259.64C232.658 259.262 232.885 258.869 232.964 258.459C233.042 258.049 233.01 257.635 232.867 257.216C232.724 256.788 232.503 256.374 232.204 255.973L230.954 254.723C230.655 254.479 230.344 254.283 230.022 254.136C229.704 253.984 229.387 253.892 229.069 253.86C228.747 253.823 228.431 253.862 228.123 253.977C227.815 254.083 227.518 254.279 227.232 254.564C226.928 254.868 226.735 255.19 226.652 255.531C226.569 255.872 226.572 256.224 226.659 256.588C226.751 256.947 226.915 257.308 227.149 257.672C227.384 258.035 227.672 258.388 228.013 258.728Z" fill="black"/>
</g>
<g filter="url(#filter5_d_60_425)">
<rect x="205.727" y="485.277" width="326.183" height="217.455" rx="16" transform="rotate(-45 205.727 485.277)" fill="url(#paint5_linear_60_425)"/>
<path d="M391.775 456.451L393.502 454.725C394.105 455.439 394.508 456.21 394.71 457.038C394.908 457.862 394.871 458.705 394.6 459.566C394.328 460.426 393.787 461.262 392.977 462.072C392.355 462.694 391.686 463.143 390.967 463.419C390.245 463.69 389.501 463.799 388.737 463.743C387.968 463.683 387.197 463.456 386.424 463.06C385.655 462.659 384.909 462.098 384.186 461.375L383.351 460.539C382.628 459.816 382.069 459.068 381.673 458.295C381.282 457.517 381.058 456.741 381.003 455.968C380.943 455.19 381.054 454.44 381.334 453.717C381.62 452.989 382.078 452.31 382.709 451.68C383.51 450.879 384.334 450.349 385.181 450.091C386.028 449.834 386.863 449.813 387.687 450.029C388.516 450.241 389.301 450.649 390.042 451.252L388.316 452.978C387.837 452.591 387.365 452.322 386.9 452.17C386.44 452.013 385.979 452.004 385.519 452.142C385.054 452.276 384.58 452.584 384.097 453.068C383.701 453.464 383.429 453.883 383.282 454.324C383.134 454.766 383.105 455.229 383.192 455.712C383.28 456.196 383.482 456.698 383.8 457.218C384.117 457.729 384.543 458.251 385.077 458.785L385.927 459.635C386.433 460.141 386.937 460.558 387.439 460.885C387.941 461.202 388.431 461.416 388.91 461.527C389.393 461.633 389.86 461.621 390.311 461.492C390.763 461.363 391.191 461.096 391.596 460.691C392.088 460.199 392.408 459.722 392.556 459.262C392.708 458.797 392.712 458.336 392.569 457.881C392.427 457.416 392.162 456.939 391.775 456.451ZM400.897 450.879L397.334 447.316C397.067 447.049 396.789 446.867 396.499 446.77C396.209 446.673 395.912 446.671 395.608 446.763C395.309 446.851 395.012 447.042 394.717 447.336C394.445 447.608 394.257 447.889 394.151 448.179C394.045 448.469 394.015 448.747 394.061 449.014C394.107 449.281 394.229 449.514 394.427 449.712L392.77 451.369C392.475 451.074 392.261 450.718 392.128 450.299C391.994 449.88 391.955 449.426 392.01 448.938C392.065 448.45 392.22 447.955 392.473 447.454C392.726 446.952 393.087 446.466 393.557 445.997C394.119 445.435 394.71 445.032 395.332 444.788C395.958 444.54 396.586 444.482 397.217 444.616C397.847 444.74 398.448 445.087 399.019 445.658L402.341 448.98C402.681 449.32 403.01 449.603 403.328 449.829C403.646 450.045 403.949 450.207 404.24 450.312L404.35 450.423L402.644 452.129C402.387 452.027 402.097 451.862 401.774 451.631C401.452 451.392 401.16 451.141 400.897 450.879ZM398.094 447.592L399.136 448.607L397.942 449.801C397.633 450.11 397.392 450.411 397.217 450.706C397.037 450.996 396.924 451.275 396.878 451.542C396.832 451.809 396.848 452.059 396.927 452.294C397.005 452.529 397.143 452.745 397.341 452.943C397.539 453.141 397.767 453.277 398.025 453.351C398.278 453.42 398.538 453.413 398.805 453.33C399.077 453.243 399.339 453.072 399.592 452.819C399.933 452.478 400.161 452.112 400.276 451.721C400.391 451.321 400.421 450.945 400.366 450.596C400.306 450.241 400.188 449.967 400.013 449.774L401.291 449.974C401.424 450.218 401.533 450.515 401.615 450.865C401.698 451.215 401.731 451.597 401.712 452.011C401.694 452.416 401.597 452.831 401.422 453.254C401.252 453.673 400.973 454.076 400.587 454.463C400.099 454.951 399.567 455.289 398.991 455.478C398.411 455.662 397.847 455.696 397.3 455.581C396.747 455.462 396.259 455.19 395.836 454.766C395.44 454.37 395.164 453.947 395.007 453.496C394.851 453.035 394.814 452.557 394.897 452.059C394.984 451.558 395.187 451.042 395.504 450.513C395.817 449.979 396.245 449.44 396.789 448.897L398.094 447.592ZM401.429 441.246L407.478 447.295L405.814 448.959L398.342 441.487L399.931 439.899L401.429 441.246ZM402.244 437.489L403.777 439.05C403.657 439.133 403.533 439.229 403.404 439.34C403.28 439.446 403.16 439.556 403.045 439.671C402.759 439.957 402.55 440.249 402.417 440.548C402.278 440.843 402.212 441.14 402.216 441.439C402.221 441.729 402.29 442.019 402.423 442.309C402.557 442.599 402.748 442.882 402.997 443.159L402.644 443.566C402.175 443.096 401.786 442.615 401.477 442.123C401.169 441.63 400.955 441.14 400.835 440.652C400.72 440.159 400.718 439.687 400.828 439.236C400.943 438.781 401.187 438.366 401.56 437.993C401.662 437.892 401.779 437.793 401.912 437.696C402.051 437.595 402.161 437.526 402.244 437.489ZM413.679 438L404.619 428.94L406.29 427.269L416.897 437.876L415.385 439.388L413.679 438ZM406.712 440.755L406.567 440.61C406 440.044 405.552 439.462 405.22 438.863C404.884 438.26 404.675 437.664 404.592 437.075C404.504 436.481 404.553 435.913 404.737 435.369C404.916 434.821 405.234 434.32 405.69 433.864C406.141 433.413 406.624 433.104 407.14 432.939C407.655 432.773 408.196 432.734 408.763 432.821C409.324 432.904 409.902 433.1 410.496 433.408C411.085 433.712 411.683 434.108 412.291 434.596L412.754 435.059C413.228 435.652 413.615 436.242 413.914 436.826C414.213 437.411 414.404 437.984 414.487 438.546C414.57 439.107 414.526 439.648 414.356 440.168C414.19 440.684 413.879 441.17 413.424 441.626C412.972 442.077 412.471 442.39 411.918 442.565C411.37 442.735 410.8 442.776 410.206 442.689C409.612 442.601 409.018 442.394 408.424 442.067C407.826 441.736 407.255 441.299 406.712 440.755ZM408.231 438.946L408.376 439.091C408.716 439.432 409.064 439.72 409.419 439.954C409.778 440.185 410.137 440.346 410.496 440.438C410.85 440.525 411.198 440.528 411.538 440.445C411.879 440.353 412.199 440.157 412.498 439.858C412.876 439.48 413.104 439.087 413.182 438.677C413.26 438.267 413.228 437.853 413.085 437.434C412.943 437.006 412.722 436.592 412.422 436.191L411.172 434.941C410.873 434.697 410.563 434.502 410.24 434.354C409.923 434.202 409.605 434.11 409.287 434.078C408.965 434.041 408.65 434.08 408.341 434.195C408.033 434.301 407.736 434.497 407.45 434.782C407.147 435.086 406.953 435.408 406.87 435.749C406.788 436.09 406.79 436.442 406.877 436.806C406.969 437.165 407.133 437.526 407.368 437.89C407.602 438.253 407.89 438.606 408.231 438.946Z" fill="black"/>
</g>
<g filter="url(#filter6_d_60_425)">
<rect x="385.945" y="665.495" width="326.183" height="217.455" rx="16" transform="rotate(-45 385.945 665.495)" fill="url(#paint6_linear_60_425)"/>
<path d="M571.993 636.669L573.72 634.943C574.323 635.657 574.726 636.428 574.928 637.256C575.126 638.08 575.089 638.923 574.818 639.784C574.546 640.644 574.005 641.48 573.195 642.29C572.573 642.912 571.904 643.361 571.185 643.637C570.463 643.908 569.719 644.017 568.955 643.961C568.186 643.901 567.415 643.674 566.642 643.278C565.873 642.877 565.127 642.316 564.404 641.593L563.569 640.757C562.846 640.035 562.287 639.286 561.891 638.513C561.5 637.735 561.276 636.959 561.221 636.186C561.161 635.408 561.272 634.658 561.553 633.935C561.838 633.207 562.296 632.528 562.927 631.898C563.728 631.097 564.552 630.567 565.399 630.309C566.246 630.052 567.081 630.031 567.905 630.247C568.734 630.459 569.519 630.867 570.26 631.47L568.534 633.196C568.055 632.809 567.583 632.54 567.118 632.388C566.658 632.231 566.198 632.222 565.737 632.36C565.272 632.494 564.798 632.802 564.315 633.286C563.919 633.682 563.647 634.101 563.5 634.542C563.353 634.984 563.323 635.447 563.41 635.93C563.498 636.414 563.7 636.916 564.018 637.436C564.335 637.947 564.761 638.469 565.295 639.003L566.145 639.853C566.651 640.359 567.155 640.776 567.657 641.103C568.159 641.42 568.649 641.634 569.128 641.745C569.611 641.851 570.078 641.839 570.529 641.71C570.981 641.581 571.409 641.314 571.814 640.909C572.306 640.417 572.626 639.94 572.774 639.48C572.926 639.015 572.93 638.554 572.788 638.099C572.645 637.634 572.38 637.157 571.993 636.669ZM581.115 631.097L577.552 627.534C577.285 627.267 577.007 627.085 576.717 626.988C576.427 626.891 576.13 626.889 575.826 626.981C575.527 627.069 575.23 627.26 574.935 627.554C574.663 627.826 574.475 628.107 574.369 628.397C574.263 628.687 574.233 628.965 574.279 629.232C574.325 629.499 574.447 629.732 574.645 629.93L572.988 631.587C572.693 631.292 572.479 630.936 572.346 630.517C572.212 630.098 572.173 629.644 572.228 629.156C572.283 628.668 572.438 628.173 572.691 627.672C572.944 627.17 573.305 626.684 573.775 626.215C574.337 625.653 574.928 625.25 575.55 625.006C576.176 624.758 576.804 624.7 577.435 624.834C578.065 624.958 578.666 625.305 579.237 625.876L582.559 629.198C582.899 629.538 583.228 629.822 583.546 630.047C583.864 630.263 584.168 630.425 584.458 630.53L584.568 630.641L582.862 632.347C582.605 632.245 582.315 632.08 581.992 631.849C581.67 631.61 581.378 631.359 581.115 631.097ZM578.312 627.81L579.354 628.825L578.16 630.019C577.851 630.328 577.61 630.629 577.435 630.924C577.255 631.214 577.142 631.493 577.096 631.76C577.05 632.027 577.067 632.278 577.145 632.512C577.223 632.747 577.361 632.963 577.559 633.161C577.757 633.359 577.985 633.495 578.243 633.569C578.496 633.638 578.756 633.631 579.023 633.548C579.295 633.461 579.557 633.29 579.81 633.037C580.151 632.696 580.379 632.33 580.494 631.939C580.609 631.539 580.639 631.163 580.584 630.814C580.524 630.459 580.406 630.185 580.231 629.992L581.509 630.192C581.642 630.436 581.751 630.733 581.833 631.083C581.916 631.433 581.949 631.815 581.93 632.229C581.912 632.634 581.815 633.049 581.64 633.472C581.47 633.891 581.191 634.294 580.805 634.681C580.317 635.169 579.785 635.507 579.209 635.696C578.629 635.88 578.065 635.914 577.518 635.799C576.965 635.68 576.477 635.408 576.054 634.984C575.658 634.588 575.382 634.165 575.225 633.714C575.069 633.253 575.032 632.775 575.115 632.278C575.202 631.776 575.405 631.26 575.722 630.731C576.035 630.197 576.463 629.658 577.007 629.115L578.312 627.81ZM581.647 621.464L587.696 627.513L586.032 629.177L578.56 621.705L580.149 620.117L581.647 621.464ZM582.462 617.707L583.995 619.268C583.875 619.351 583.751 619.447 583.622 619.558C583.498 619.664 583.378 619.774 583.263 619.889C582.977 620.175 582.768 620.467 582.635 620.766C582.496 621.061 582.43 621.358 582.434 621.657C582.439 621.947 582.508 622.237 582.641 622.527C582.775 622.817 582.966 623.1 583.215 623.377L582.862 623.784C582.393 623.314 582.004 622.833 581.695 622.341C581.387 621.848 581.173 621.358 581.053 620.87C580.938 620.377 580.936 619.905 581.046 619.454C581.161 618.999 581.405 618.584 581.778 618.211C581.88 618.11 581.997 618.011 582.13 617.914C582.269 617.813 582.379 617.744 582.462 617.707ZM593.897 618.218L584.837 609.158L586.508 607.487L597.115 618.094L595.603 619.606L593.897 618.218ZM586.93 620.973L586.785 620.828C586.218 620.262 585.77 619.68 585.438 619.081C585.102 618.478 584.893 617.882 584.81 617.293C584.722 616.699 584.771 616.131 584.955 615.587C585.134 615.039 585.452 614.538 585.908 614.082C586.359 613.631 586.842 613.322 587.358 613.157C587.873 612.991 588.414 612.952 588.981 613.039C589.542 613.122 590.12 613.318 590.714 613.626C591.303 613.93 591.901 614.326 592.509 614.814L592.972 615.277C593.446 615.87 593.833 616.46 594.132 617.044C594.431 617.629 594.622 618.202 594.705 618.764C594.788 619.325 594.744 619.866 594.574 620.387C594.408 620.902 594.097 621.388 593.642 621.844C593.19 622.295 592.689 622.608 592.136 622.783C591.588 622.953 591.018 622.994 590.424 622.907C589.83 622.819 589.236 622.612 588.642 622.285C588.044 621.954 587.473 621.517 586.93 620.973ZM588.449 619.164L588.594 619.309C588.934 619.65 589.282 619.938 589.637 620.172C589.996 620.403 590.355 620.564 590.714 620.656C591.068 620.743 591.416 620.746 591.756 620.663C592.097 620.571 592.417 620.375 592.716 620.076C593.094 619.698 593.322 619.305 593.4 618.895C593.478 618.485 593.446 618.071 593.303 617.652C593.161 617.224 592.94 616.81 592.64 616.409L591.39 615.159C591.091 614.915 590.781 614.72 590.458 614.572C590.141 614.42 589.823 614.328 589.505 614.296C589.183 614.259 588.868 614.298 588.559 614.413C588.251 614.519 587.954 614.715 587.669 615C587.365 615.304 587.171 615.626 587.088 615.967C587.006 616.308 587.008 616.66 587.095 617.024C587.187 617.383 587.351 617.744 587.586 618.108C587.82 618.471 588.108 618.824 588.449 619.164Z" fill="black"/>
</g>
<g filter="url(#filter7_d_60_425)">
<rect x="566.334" y="845.884" width="326.183" height="217.455" rx="16" transform="rotate(-45 566.334 845.884)" fill="url(#paint7_linear_60_425)"/>
<path d="M752.383 817.059L754.109 815.332C754.712 816.046 755.115 816.817 755.318 817.646C755.516 818.47 755.479 819.312 755.207 820.173C754.936 821.034 754.395 821.869 753.585 822.68C752.963 823.301 752.293 823.75 751.575 824.026C750.852 824.298 750.109 824.406 749.345 824.351C748.576 824.291 747.805 824.063 747.031 823.667C746.263 823.267 745.517 822.705 744.794 821.982L743.959 821.147C743.236 820.424 742.676 819.676 742.281 818.902C741.889 818.124 741.666 817.349 741.611 816.575C741.551 815.797 741.661 815.047 741.942 814.324C742.228 813.597 742.686 812.918 743.316 812.287C744.117 811.486 744.941 810.957 745.788 810.699C746.635 810.441 747.471 810.42 748.295 810.637C749.124 810.849 749.909 811.256 750.65 811.859L748.923 813.585C748.445 813.199 747.973 812.929 747.508 812.777C747.048 812.621 746.587 812.612 746.127 812.75C745.662 812.883 745.188 813.192 744.704 813.675C744.308 814.071 744.037 814.49 743.889 814.932C743.742 815.374 743.712 815.836 743.8 816.32C743.887 816.803 744.09 817.305 744.407 817.825C744.725 818.336 745.151 818.859 745.685 819.393L746.534 820.242C747.041 820.748 747.545 821.165 748.046 821.492C748.548 821.81 749.039 822.024 749.517 822.134C750.001 822.24 750.468 822.229 750.919 822.1C751.37 821.971 751.798 821.704 752.204 821.299C752.696 820.806 753.016 820.33 753.163 819.869C753.315 819.404 753.32 818.944 753.177 818.488C753.034 818.023 752.77 817.547 752.383 817.059ZM761.505 811.486L757.942 807.923C757.675 807.656 757.396 807.474 757.106 807.377C756.816 807.281 756.519 807.278 756.216 807.371C755.916 807.458 755.619 807.649 755.325 807.944C755.053 808.215 754.864 808.496 754.758 808.786C754.653 809.076 754.623 809.355 754.669 809.622C754.715 809.889 754.837 810.121 755.035 810.319L753.377 811.976C753.083 811.682 752.869 811.325 752.735 810.906C752.602 810.487 752.563 810.034 752.618 809.546C752.673 809.058 752.827 808.563 753.08 808.061C753.334 807.559 753.695 807.074 754.165 806.604C754.726 806.042 755.318 805.64 755.939 805.396C756.565 805.147 757.194 805.089 757.824 805.223C758.455 805.347 759.056 805.695 759.627 806.266L762.948 809.587C763.289 809.928 763.618 810.211 763.936 810.436C764.253 810.653 764.557 810.814 764.847 810.92L764.958 811.03L763.252 812.736C762.994 812.635 762.704 812.469 762.382 812.239C762.06 811.999 761.767 811.749 761.505 811.486ZM758.701 808.199L759.744 809.214L758.55 810.409C758.241 810.717 757.999 811.019 757.824 811.313C757.645 811.603 757.532 811.882 757.486 812.149C757.44 812.416 757.456 812.667 757.534 812.902C757.613 813.136 757.751 813.353 757.949 813.551C758.147 813.749 758.375 813.885 758.632 813.958C758.886 814.027 759.146 814.02 759.413 813.937C759.684 813.85 759.947 813.68 760.2 813.427C760.541 813.086 760.768 812.72 760.884 812.329C760.999 811.928 761.029 811.553 760.973 811.203C760.913 810.849 760.796 810.575 760.621 810.381L761.899 810.582C762.032 810.825 762.14 811.122 762.223 811.472C762.306 811.822 762.338 812.204 762.32 812.619C762.301 813.024 762.205 813.438 762.03 813.862C761.859 814.28 761.581 814.683 761.194 815.07C760.706 815.558 760.175 815.896 759.599 816.085C759.019 816.269 758.455 816.304 757.907 816.189C757.355 816.069 756.867 815.797 756.443 815.374C756.047 814.978 755.771 814.554 755.615 814.103C755.458 813.643 755.421 813.164 755.504 812.667C755.592 812.165 755.794 811.65 756.112 811.12C756.425 810.586 756.853 810.047 757.396 809.504L758.701 808.199ZM762.037 801.853L768.086 807.902L766.422 809.566L758.95 802.095L760.538 800.507L762.037 801.853ZM762.852 798.097L764.385 799.657C764.265 799.74 764.141 799.837 764.012 799.947C763.887 800.053 763.768 800.164 763.653 800.279C763.367 800.564 763.158 800.856 763.024 801.156C762.886 801.45 762.819 801.747 762.824 802.047C762.829 802.337 762.898 802.627 763.031 802.917C763.165 803.207 763.356 803.49 763.604 803.766L763.252 804.173C762.782 803.704 762.393 803.223 762.085 802.73C761.777 802.238 761.563 801.747 761.443 801.259C761.328 800.767 761.325 800.295 761.436 799.844C761.551 799.388 761.795 798.974 762.168 798.601C762.269 798.499 762.387 798.4 762.52 798.304C762.658 798.203 762.769 798.133 762.852 798.097ZM774.287 798.608L765.227 789.548L766.898 787.877L777.505 798.483L775.992 799.996L774.287 798.608ZM767.319 801.363L767.174 801.218C766.608 800.652 766.159 800.069 765.828 799.471C765.492 798.868 765.282 798.272 765.199 797.682C765.112 797.088 765.16 796.52 765.344 795.977C765.524 795.429 765.842 794.927 766.297 794.471C766.748 794.02 767.232 793.712 767.747 793.546C768.263 793.38 768.804 793.341 769.37 793.429C769.932 793.512 770.51 793.707 771.103 794.016C771.693 794.319 772.291 794.715 772.899 795.203L773.361 795.666C773.836 796.26 774.222 796.849 774.522 797.434C774.821 798.018 775.012 798.592 775.095 799.153C775.178 799.715 775.134 800.256 774.963 800.776C774.798 801.292 774.487 801.777 774.031 802.233C773.58 802.684 773.078 802.997 772.526 803.172C771.978 803.342 771.407 803.384 770.813 803.296C770.22 803.209 769.626 803.002 769.032 802.675C768.433 802.343 767.863 801.906 767.319 801.363ZM768.838 799.554L768.983 799.699C769.324 800.039 769.672 800.327 770.026 800.562C770.385 800.792 770.744 800.953 771.103 801.045C771.458 801.133 771.805 801.135 772.146 801.052C772.487 800.96 772.807 800.764 773.106 800.465C773.483 800.088 773.711 799.694 773.79 799.284C773.868 798.875 773.836 798.46 773.693 798.041C773.55 797.613 773.329 797.199 773.03 796.798L771.78 795.549C771.481 795.305 771.17 795.109 770.848 794.962C770.53 794.81 770.213 794.718 769.895 794.685C769.573 794.649 769.257 794.688 768.949 794.803C768.641 794.909 768.344 795.104 768.058 795.39C767.754 795.694 767.561 796.016 767.478 796.357C767.395 796.697 767.398 797.049 767.485 797.413C767.577 797.772 767.741 798.133 767.975 798.497C768.21 798.861 768.498 799.213 768.838 799.554Z" fill="black"/>
</g>
<g filter="url(#filter8_d_60_425)">
<rect x="282.608" y="47.9585" width="326.183" height="217.455" rx="16" transform="rotate(-45 282.608 47.9585)" fill="url(#paint8_linear_60_425)"/>
<path d="M468.657 19.133L470.384 17.4067C470.987 18.1202 471.389 18.8913 471.592 19.72C471.79 20.544 471.753 21.3864 471.482 22.2473C471.21 23.1082 470.669 23.9437 469.859 24.754C469.237 25.3754 468.567 25.8243 467.849 26.1005C467.127 26.3721 466.383 26.4803 465.619 26.425C464.85 26.3652 464.079 26.1373 463.306 25.7414C462.537 25.3409 461.791 24.7793 461.068 24.0565L460.233 23.221C459.51 22.4982 458.951 21.7501 458.555 20.9767C458.163 20.1987 457.94 19.423 457.885 18.6496C457.825 17.8716 457.936 17.1213 458.216 16.3985C458.502 15.6711 458.96 14.9921 459.591 14.3614C460.392 13.5604 461.216 13.031 462.063 12.7732C462.91 12.5154 463.745 12.4947 464.569 12.711C465.398 12.9228 466.183 13.3302 466.924 13.9333L465.198 15.6596C464.719 15.2729 464.247 15.0036 463.782 14.8517C463.322 14.6952 462.861 14.686 462.401 14.8241C461.936 14.9576 461.462 15.266 460.979 15.7494C460.583 16.1453 460.311 16.5642 460.164 17.0062C460.016 17.4481 459.986 17.9108 460.074 18.3941C460.161 18.8775 460.364 19.3793 460.682 19.8995C460.999 20.4105 461.425 20.933 461.959 21.467L462.808 22.3164C463.315 22.8228 463.819 23.2394 464.321 23.5662C464.822 23.8839 465.313 24.0979 465.792 24.2084C466.275 24.3143 466.742 24.3028 467.193 24.1739C467.644 24.045 468.073 23.778 468.478 23.3729C468.97 22.8803 469.29 22.4038 469.438 21.9435C469.589 21.4785 469.594 21.0182 469.451 20.5624C469.309 20.0975 469.044 19.621 468.657 19.133ZM477.779 13.5604L474.216 9.99724C473.949 9.73024 473.671 9.5484 473.381 9.45172C473.09 9.35505 472.794 9.35274 472.49 9.44482C472.19 9.53228 471.894 9.72333 471.599 10.018C471.327 10.2896 471.139 10.5704 471.033 10.8604C470.927 11.1504 470.897 11.4289 470.943 11.696C470.989 11.963 471.111 12.1954 471.309 12.3934L469.652 14.0507C469.357 13.756 469.143 13.3993 469.009 12.9803C468.876 12.5614 468.837 12.108 468.892 11.62C468.947 11.132 469.101 10.6371 469.355 10.1353C469.608 9.63356 469.969 9.14789 470.439 8.67832C471 8.11669 471.592 7.71388 472.214 7.46989C472.84 7.2213 473.468 7.16375 474.099 7.29726C474.729 7.42155 475.33 7.76912 475.901 8.33996L479.222 11.6614C479.563 12.0021 479.892 12.2852 480.21 12.5108C480.528 12.7272 480.831 12.8883 481.121 12.9942L481.232 13.1046L479.526 14.8103C479.268 14.709 478.978 14.5433 478.656 14.3131C478.334 14.0737 478.042 13.8228 477.779 13.5604ZM474.976 10.2735L476.018 11.2885L474.824 12.4832C474.515 12.7916 474.274 13.0931 474.099 13.3878C473.919 13.6778 473.806 13.9563 473.76 14.2233C473.714 14.4903 473.73 14.7412 473.809 14.976C473.887 15.2108 474.025 15.4271 474.223 15.6251C474.421 15.823 474.649 15.9589 474.907 16.0325C475.16 16.1016 475.42 16.0947 475.687 16.0118C475.958 15.9243 476.221 15.754 476.474 15.5008C476.815 15.1601 477.043 14.7942 477.158 14.4028C477.273 14.0023 477.303 13.6271 477.247 13.2773C477.188 12.9228 477.07 12.6489 476.895 12.4555L478.173 12.6558C478.306 12.8998 478.414 13.1967 478.497 13.5466C478.58 13.8965 478.612 14.2786 478.594 14.6929C478.576 15.098 478.479 15.5123 478.304 15.9358C478.134 16.3548 477.855 16.7576 477.468 17.1443C476.98 17.6322 476.449 17.9706 475.873 18.1594C475.293 18.3435 474.729 18.378 474.182 18.2629C473.629 18.1432 473.141 17.8716 472.718 17.4481C472.322 17.0522 472.045 16.6287 471.889 16.1775C471.732 15.7172 471.696 15.2384 471.778 14.7412C471.866 14.2394 472.068 13.7238 472.386 13.1944C472.699 12.6604 473.127 12.1218 473.671 11.5786L474.976 10.2735ZM478.311 3.92745L484.36 9.97653L482.696 11.6407L475.224 4.16914L476.812 2.58091L478.311 3.92745ZM479.126 0.170945L480.659 1.73155C480.539 1.81442 480.415 1.91109 480.286 2.02158C480.162 2.12746 480.042 2.23794 479.927 2.35303C479.641 2.63845 479.432 2.93078 479.298 3.23001C479.16 3.52464 479.094 3.82157 479.098 4.1208C479.103 4.41082 479.172 4.70085 479.305 4.99087C479.439 5.2809 479.63 5.56401 479.878 5.84023L479.526 6.24764C479.057 5.77808 478.668 5.29701 478.359 4.80443C478.051 4.31185 477.837 3.82157 477.717 3.33359C477.602 2.84101 477.6 2.36914 477.71 1.918C477.825 1.46224 478.069 1.04792 478.442 0.675035C478.543 0.573756 478.661 0.47478 478.794 0.378105C478.932 0.276827 479.043 0.207773 479.126 0.170945ZM490.561 0.68194L481.501 -8.37787L483.172 -10.049L493.779 0.557644L492.267 2.06991L490.561 0.68194ZM483.594 3.43717L483.448 3.29216C482.882 2.72592 482.433 2.14357 482.102 1.54511C481.766 0.942041 481.556 0.34588 481.474 -0.243376C481.386 -0.837235 481.434 -1.40577 481.619 -1.94899C481.798 -2.49682 482.116 -2.99861 482.572 -3.45436C483.023 -3.90551 483.506 -4.21395 484.022 -4.37967C484.537 -4.5454 485.078 -4.58453 485.644 -4.49706C486.206 -4.4142 486.784 -4.21855 487.378 -3.91011C487.967 -3.60628 488.565 -3.21037 489.173 -2.72239L489.636 -2.25973C490.11 -1.66588 490.497 -1.07662 490.796 -0.491968C491.095 0.0926842 491.286 0.665827 491.369 1.22746C491.452 1.7891 491.408 2.33001 491.238 2.85022C491.072 3.36582 490.761 3.85149 490.305 4.30724C489.854 4.75839 489.353 5.07143 488.8 5.24637C488.252 5.4167 487.681 5.45813 487.088 5.37067C486.494 5.2832 485.9 5.07604 485.306 4.74918C484.708 4.41773 484.137 3.98039 483.594 3.43717ZM485.113 1.62797L485.258 1.77298C485.598 2.11365 485.946 2.40137 486.3 2.63615C486.659 2.86633 487.019 3.02745 487.378 3.11952C487.732 3.20699 488.08 3.20929 488.42 3.12643C488.761 3.03436 489.081 2.83871 489.38 2.53948C489.758 2.16198 489.986 1.76838 490.064 1.35866C490.142 0.948946 490.11 0.534626 489.967 0.115702C489.824 -0.312429 489.603 -0.726749 489.304 -1.12726L488.054 -2.37713C487.755 -2.62111 487.444 -2.81677 487.122 -2.96408C486.804 -3.116 486.487 -3.20807 486.169 -3.24029C485.847 -3.27712 485.532 -3.23799 485.223 -3.1229C484.915 -3.01702 484.618 -2.82137 484.332 -2.53595C484.029 -2.23211 483.835 -1.90986 483.752 -1.5692C483.669 -1.22854 483.672 -0.876365 483.759 -0.512684C483.851 -0.153606 484.015 0.207773 484.25 0.571454C484.484 0.935136 484.772 1.28731 485.113 1.62797Z" fill="black"/>
</g>
<g filter="url(#filter9_d_60_425)">
<rect x="462.827" y="228.177" width="326.183" height="217.455" rx="16" transform="rotate(-45 462.827 228.177)" fill="url(#paint9_linear_60_425)"/>
<path d="M648.876 199.351L650.602 197.625C651.205 198.338 651.608 199.109 651.81 199.938C652.008 200.762 651.971 201.605 651.7 202.465C651.428 203.326 650.887 204.162 650.077 204.972C649.456 205.594 648.786 206.042 648.068 206.319C647.345 206.59 646.601 206.698 645.837 206.643C645.068 206.583 644.297 206.355 643.524 205.96C642.755 205.559 642.009 204.997 641.287 204.275L640.451 203.439C639.728 202.716 639.169 201.968 638.773 201.195C638.382 200.417 638.158 199.641 638.103 198.868C638.043 198.09 638.154 197.339 638.435 196.617C638.72 195.889 639.178 195.21 639.809 194.58C640.61 193.779 641.434 193.249 642.281 192.991C643.128 192.734 643.964 192.713 644.788 192.929C645.616 193.141 646.401 193.548 647.142 194.151L645.416 195.878C644.937 195.491 644.465 195.222 644 195.07C643.54 194.913 643.08 194.904 642.619 195.042C642.154 195.176 641.68 195.484 641.197 195.968C640.801 196.363 640.529 196.782 640.382 197.224C640.235 197.666 640.205 198.129 640.292 198.612C640.38 199.096 640.582 199.597 640.9 200.118C641.217 200.629 641.643 201.151 642.177 201.685L643.027 202.535C643.533 203.041 644.037 203.458 644.539 203.784C645.041 204.102 645.531 204.316 646.01 204.427C646.493 204.532 646.96 204.521 647.412 204.392C647.863 204.263 648.291 203.996 648.696 203.591C649.189 203.098 649.509 202.622 649.656 202.162C649.808 201.697 649.812 201.236 649.67 200.781C649.527 200.316 649.262 199.839 648.876 199.351ZM657.997 193.779L654.434 190.215C654.167 189.948 653.889 189.767 653.599 189.67C653.309 189.573 653.012 189.571 652.708 189.663C652.409 189.75 652.112 189.941 651.817 190.236C651.546 190.508 651.357 190.789 651.251 191.079C651.145 191.369 651.115 191.647 651.161 191.914C651.207 192.181 651.329 192.414 651.527 192.612L649.87 194.269C649.575 193.974 649.361 193.617 649.228 193.198C649.094 192.78 649.055 192.326 649.11 191.838C649.166 191.35 649.32 190.855 649.573 190.353C649.826 189.852 650.188 189.366 650.657 188.896C651.219 188.335 651.81 187.932 652.432 187.688C653.058 187.439 653.686 187.382 654.317 187.515C654.948 187.64 655.548 187.987 656.119 188.558L659.441 191.88C659.781 192.22 660.111 192.503 660.428 192.729C660.746 192.945 661.05 193.106 661.34 193.212L661.45 193.323L659.745 195.028C659.487 194.927 659.197 194.761 658.874 194.531C658.552 194.292 658.26 194.041 657.997 193.779ZM655.194 190.492L656.237 191.507L655.042 192.701C654.734 193.01 654.492 193.311 654.317 193.606C654.137 193.896 654.025 194.174 653.979 194.441C653.933 194.708 653.949 194.959 654.027 195.194C654.105 195.429 654.243 195.645 654.441 195.843C654.639 196.041 654.867 196.177 655.125 196.251C655.378 196.32 655.638 196.313 655.905 196.23C656.177 196.142 656.439 195.972 656.692 195.719C657.033 195.378 657.261 195.012 657.376 194.621C657.491 194.22 657.521 193.845 657.466 193.495C657.406 193.141 657.289 192.867 657.114 192.674L658.391 192.874C658.525 193.118 658.633 193.415 658.716 193.765C658.798 194.115 658.831 194.497 658.812 194.911C658.794 195.316 658.697 195.73 658.522 196.154C658.352 196.573 658.073 196.976 657.687 197.362C657.199 197.85 656.667 198.189 656.092 198.377C655.512 198.562 654.948 198.596 654.4 198.481C653.847 198.361 653.359 198.09 652.936 197.666C652.54 197.27 652.264 196.847 652.107 196.396C651.951 195.935 651.914 195.457 651.997 194.959C652.084 194.458 652.287 193.942 652.604 193.413C652.917 192.879 653.346 192.34 653.889 191.797L655.194 190.492ZM658.529 184.146L664.578 190.195L662.914 191.859L655.442 184.387L657.031 182.799L658.529 184.146ZM659.344 180.389L660.877 181.95C660.757 182.033 660.633 182.129 660.504 182.24C660.38 182.346 660.26 182.456 660.145 182.571C659.86 182.857 659.65 183.149 659.517 183.448C659.379 183.743 659.312 184.04 659.316 184.339C659.321 184.629 659.39 184.919 659.524 185.209C659.657 185.499 659.848 185.782 660.097 186.058L659.745 186.466C659.275 185.996 658.886 185.515 658.578 185.023C658.269 184.53 658.055 184.04 657.935 183.552C657.82 183.059 657.818 182.587 657.928 182.136C658.044 181.68 658.287 181.266 658.66 180.893C658.762 180.792 658.879 180.693 659.013 180.596C659.151 180.495 659.261 180.426 659.344 180.389ZM670.779 180.9L661.719 171.84L663.391 170.169L673.997 180.776L672.485 182.288L670.779 180.9ZM663.812 183.655L663.667 183.51C663.101 182.944 662.652 182.362 662.32 181.763C661.984 181.16 661.775 180.564 661.692 179.975C661.604 179.381 661.653 178.812 661.837 178.269C662.016 177.721 662.334 177.22 662.79 176.764C663.241 176.313 663.724 176.004 664.24 175.838C664.755 175.673 665.296 175.634 665.863 175.721C666.424 175.804 667.002 176 667.596 176.308C668.185 176.612 668.784 177.008 669.391 177.496L669.854 177.958C670.328 178.552 670.715 179.142 671.014 179.726C671.313 180.311 671.504 180.884 671.587 181.446C671.67 182.007 671.626 182.548 671.456 183.068C671.29 183.584 670.98 184.07 670.524 184.525C670.073 184.977 669.571 185.29 669.018 185.465C668.471 185.635 667.9 185.676 667.306 185.589C666.712 185.501 666.118 185.294 665.524 184.967C664.926 184.636 664.355 184.199 663.812 183.655ZM665.331 181.846L665.476 181.991C665.817 182.332 666.164 182.62 666.519 182.854C666.878 183.084 667.237 183.246 667.596 183.338C667.95 183.425 668.298 183.427 668.639 183.345C668.979 183.252 669.299 183.057 669.598 182.758C669.976 182.38 670.204 181.987 670.282 181.577C670.36 181.167 670.328 180.753 670.185 180.334C670.043 179.906 669.822 179.491 669.522 179.091L668.273 177.841C667.973 177.597 667.663 177.401 667.34 177.254C667.023 177.102 666.705 177.01 666.387 176.978C666.065 176.941 665.75 176.98 665.441 177.095C665.133 177.201 664.836 177.397 664.551 177.682C664.247 177.986 664.053 178.308 663.971 178.649C663.888 178.99 663.89 179.342 663.977 179.705C664.07 180.065 664.233 180.426 664.468 180.79C664.703 181.153 664.99 181.505 665.331 181.846Z" fill="black"/>
</g>
<g filter="url(#filter10_d_60_425)">
<rect x="643.045" y="408.395" width="326.183" height="217.455" rx="16" transform="rotate(-45 643.045 408.395)" fill="url(#paint10_linear_60_425)"/>
<path d="M829.094 379.569L830.82 377.843C831.423 378.556 831.826 379.327 832.029 380.156C832.227 380.98 832.19 381.823 831.918 382.683C831.647 383.544 831.106 384.38 830.296 385.19C829.674 385.812 829.004 386.26 828.286 386.537C827.563 386.808 826.82 386.916 826.056 386.861C825.287 386.801 824.516 386.573 823.742 386.178C822.974 385.777 822.228 385.215 821.505 384.493L820.67 383.657C819.947 382.934 819.387 382.186 818.992 381.413C818.6 380.635 818.377 379.859 818.322 379.086C818.262 378.308 818.372 377.557 818.653 376.835C818.939 376.107 819.397 375.428 820.027 374.798C820.828 373.997 821.652 373.467 822.499 373.209C823.346 372.952 824.182 372.931 825.006 373.147C825.835 373.359 826.62 373.766 827.361 374.369L825.634 376.096C825.156 375.709 824.684 375.44 824.219 375.288C823.758 375.131 823.298 375.122 822.838 375.26C822.373 375.394 821.899 375.702 821.415 376.186C821.019 376.581 820.748 377 820.6 377.442C820.453 377.884 820.423 378.347 820.511 378.83C820.598 379.314 820.801 379.815 821.118 380.336C821.436 380.847 821.862 381.369 822.396 381.903L823.245 382.753C823.752 383.259 824.256 383.676 824.757 384.002C825.259 384.32 825.75 384.534 826.228 384.645C826.712 384.75 827.179 384.739 827.63 384.61C828.081 384.481 828.509 384.214 828.914 383.809C829.407 383.316 829.727 382.84 829.874 382.38C830.026 381.915 830.031 381.454 829.888 380.999C829.745 380.534 829.481 380.057 829.094 379.569ZM838.216 373.997L834.653 370.433C834.386 370.166 834.107 369.985 833.817 369.888C833.527 369.791 833.23 369.789 832.926 369.881C832.627 369.968 832.33 370.159 832.036 370.454C831.764 370.726 831.575 371.007 831.469 371.297C831.364 371.587 831.334 371.865 831.38 372.132C831.426 372.399 831.548 372.632 831.746 372.83L830.088 374.487C829.794 374.192 829.58 373.835 829.446 373.417C829.313 372.998 829.274 372.544 829.329 372.056C829.384 371.568 829.538 371.073 829.791 370.572C830.045 370.07 830.406 369.584 830.876 369.114C831.437 368.553 832.029 368.15 832.65 367.906C833.276 367.657 833.905 367.6 834.535 367.733C835.166 367.858 835.767 368.205 836.338 368.776L839.659 372.098C840 372.438 840.329 372.721 840.647 372.947C840.964 373.163 841.268 373.324 841.558 373.43L841.669 373.541L839.963 375.246C839.705 375.145 839.415 374.979 839.093 374.749C838.771 374.51 838.478 374.259 838.216 373.997ZM835.412 370.71L836.455 371.725L835.26 372.919C834.952 373.228 834.71 373.529 834.535 373.824C834.356 374.114 834.243 374.392 834.197 374.659C834.151 374.926 834.167 375.177 834.245 375.412C834.324 375.647 834.462 375.863 834.66 376.061C834.858 376.259 835.086 376.395 835.343 376.469C835.597 376.538 835.857 376.531 836.124 376.448C836.395 376.36 836.658 376.19 836.911 375.937C837.252 375.596 837.479 375.23 837.594 374.839C837.71 374.438 837.74 374.063 837.684 373.713C837.624 373.359 837.507 373.085 837.332 372.892L838.61 373.092C838.743 373.336 838.851 373.633 838.934 373.983C839.017 374.333 839.049 374.715 839.031 375.129C839.012 375.534 838.916 375.948 838.741 376.372C838.57 376.791 838.292 377.194 837.905 377.58C837.417 378.068 836.886 378.407 836.31 378.596C835.73 378.78 835.166 378.814 834.618 378.699C834.066 378.579 833.578 378.308 833.154 377.884C832.758 377.488 832.482 377.065 832.326 376.614C832.169 376.153 832.132 375.675 832.215 375.177C832.303 374.676 832.505 374.16 832.823 373.631C833.136 373.097 833.564 372.558 834.107 372.015L835.412 370.71ZM838.748 364.364L844.797 370.413L843.133 372.077L835.661 364.605L837.249 363.017L838.748 364.364ZM839.563 360.607L841.095 362.168C840.976 362.251 840.852 362.347 840.723 362.458C840.598 362.564 840.479 362.674 840.364 362.789C840.078 363.075 839.869 363.367 839.735 363.666C839.597 363.961 839.53 364.258 839.535 364.557C839.539 364.847 839.609 365.137 839.742 365.427C839.876 365.717 840.067 366 840.315 366.276L839.963 366.684C839.493 366.214 839.104 365.733 838.796 365.241C838.488 364.748 838.274 364.258 838.154 363.77C838.039 363.277 838.036 362.805 838.147 362.354C838.262 361.898 838.506 361.484 838.879 361.111C838.98 361.01 839.098 360.911 839.231 360.814C839.369 360.713 839.48 360.644 839.563 360.607ZM850.998 361.118L841.938 352.058L843.609 350.387L854.216 360.994L852.703 362.506L850.998 361.118ZM844.03 363.873L843.885 363.728C843.319 363.162 842.87 362.58 842.539 361.981C842.203 361.378 841.993 360.782 841.91 360.193C841.823 359.599 841.871 359.03 842.055 358.487C842.235 357.939 842.553 357.438 843.008 356.982C843.459 356.531 843.943 356.222 844.458 356.056C844.974 355.891 845.515 355.852 846.081 355.939C846.643 356.022 847.221 356.218 847.814 356.526C848.404 356.83 849.002 357.226 849.61 357.714L850.072 358.176C850.547 358.77 850.933 359.36 851.233 359.944C851.532 360.529 851.723 361.102 851.806 361.664C851.889 362.225 851.845 362.766 851.674 363.286C851.509 363.802 851.198 364.288 850.742 364.743C850.291 365.195 849.789 365.508 849.237 365.683C848.689 365.853 848.118 365.894 847.524 365.807C846.931 365.719 846.337 365.512 845.743 365.185C845.144 364.854 844.573 364.417 844.03 363.873ZM845.549 362.064L845.694 362.209C846.035 362.55 846.383 362.838 846.737 363.072C847.096 363.302 847.455 363.464 847.814 363.556C848.169 363.643 848.516 363.645 848.857 363.563C849.198 363.471 849.518 363.275 849.817 362.976C850.194 362.598 850.422 362.205 850.501 361.795C850.579 361.385 850.547 360.971 850.404 360.552C850.261 360.124 850.04 359.709 849.741 359.309L848.491 358.059C848.192 357.815 847.881 357.619 847.559 357.472C847.241 357.32 846.924 357.228 846.606 357.196C846.284 357.159 845.968 357.198 845.66 357.313C845.351 357.419 845.055 357.615 844.769 357.9C844.465 358.204 844.272 358.526 844.189 358.867C844.106 359.208 844.109 359.56 844.196 359.923C844.288 360.283 844.451 360.644 844.686 361.008C844.921 361.371 845.209 361.723 845.549 362.064Z" fill="black"/>
</g>
<g filter="url(#filter11_d_60_425)">
<rect x="823.434" y="588.784" width="326.183" height="217.455" rx="16" transform="rotate(-45 823.434 588.784)" fill="url(#paint11_linear_60_425)"/>
<path d="M1009.48 559.958L1011.21 558.232C1011.81 558.946 1012.22 559.717 1012.42 560.545C1012.62 561.369 1012.58 562.212 1012.31 563.073C1012.04 563.933 1011.49 564.769 1010.68 565.579C1010.06 566.201 1009.39 566.65 1008.68 566.926C1007.95 567.197 1007.21 567.306 1006.44 567.25C1005.68 567.191 1004.9 566.963 1004.13 566.567C1003.36 566.166 1002.62 565.605 1001.89 564.882L1001.06 564.046C1000.34 563.324 999.777 562.575 999.381 561.802C998.989 561.024 998.766 560.248 998.711 559.475C998.651 558.697 998.761 557.947 999.042 557.224C999.328 556.496 999.786 555.817 1000.42 555.187C1001.22 554.386 1002.04 553.856 1002.89 553.599C1003.74 553.341 1004.57 553.32 1005.4 553.536C1006.22 553.748 1007.01 554.156 1007.75 554.759L1006.02 556.485C1005.54 556.098 1005.07 555.829 1004.61 555.677C1004.15 555.52 1003.69 555.511 1003.23 555.649C1002.76 555.783 1002.29 556.091 1001.8 556.575C1001.41 556.971 1001.14 557.39 1000.99 557.831C1000.84 558.273 1000.81 558.736 1000.9 559.219C1000.99 559.703 1001.19 560.205 1001.51 560.725C1001.83 561.236 1002.25 561.758 1002.79 562.292L1003.63 563.142C1004.14 563.648 1004.64 564.065 1005.15 564.392C1005.65 564.709 1006.14 564.923 1006.62 565.034C1007.1 565.14 1007.57 565.128 1008.02 564.999C1008.47 564.87 1008.9 564.603 1009.3 564.198C1009.8 563.706 1010.12 563.229 1010.26 562.769C1010.42 562.304 1010.42 561.843 1010.28 561.388C1010.13 560.923 1009.87 560.446 1009.48 559.958ZM1018.61 554.386L1015.04 550.823C1014.77 550.556 1014.5 550.374 1014.21 550.277C1013.92 550.18 1013.62 550.178 1013.32 550.27C1013.02 550.358 1012.72 550.549 1012.42 550.843C1012.15 551.115 1011.96 551.396 1011.86 551.686C1011.75 551.976 1011.72 552.254 1011.77 552.521C1011.81 552.788 1011.94 553.021 1012.13 553.219L1010.48 554.876C1010.18 554.581 1009.97 554.225 1009.84 553.806C1009.7 553.387 1009.66 552.933 1009.72 552.445C1009.77 551.957 1009.93 551.462 1010.18 550.961C1010.43 550.459 1010.8 549.973 1011.26 549.504C1011.83 548.942 1012.42 548.539 1013.04 548.295C1013.67 548.047 1014.29 547.989 1014.92 548.123C1015.56 548.247 1016.16 548.594 1016.73 549.165L1020.05 552.487C1020.39 552.827 1020.72 553.111 1021.04 553.336C1021.35 553.552 1021.66 553.714 1021.95 553.819L1022.06 553.93L1020.35 555.636C1020.09 555.534 1019.8 555.369 1019.48 555.138C1019.16 554.899 1018.87 554.648 1018.61 554.386ZM1015.8 551.099L1016.84 552.114L1015.65 553.308C1015.34 553.617 1015.1 553.918 1014.92 554.213C1014.75 554.503 1014.63 554.782 1014.59 555.049C1014.54 555.316 1014.56 555.567 1014.63 555.801C1014.71 556.036 1014.85 556.252 1015.05 556.45C1015.25 556.648 1015.47 556.784 1015.73 556.858C1015.99 556.927 1016.25 556.92 1016.51 556.837C1016.78 556.75 1017.05 556.579 1017.3 556.326C1017.64 555.985 1017.87 555.619 1017.98 555.228C1018.1 554.828 1018.13 554.452 1018.07 554.103C1018.01 553.748 1017.9 553.474 1017.72 553.281L1019 553.481C1019.13 553.725 1019.24 554.022 1019.32 554.372C1019.41 554.722 1019.44 555.104 1019.42 555.518C1019.4 555.923 1019.3 556.338 1019.13 556.761C1018.96 557.18 1018.68 557.583 1018.29 557.97C1017.81 558.458 1017.27 558.796 1016.7 558.985C1016.12 559.169 1015.56 559.203 1015.01 559.088C1014.46 558.969 1013.97 558.697 1013.54 558.273C1013.15 557.878 1012.87 557.454 1012.71 557.003C1012.56 556.542 1012.52 556.064 1012.6 555.567C1012.69 555.065 1012.89 554.549 1013.21 554.02C1013.53 553.486 1013.95 552.947 1014.5 552.404L1015.8 551.099ZM1019.14 544.753L1025.19 550.802L1023.52 552.466L1016.05 544.994L1017.64 543.406L1019.14 544.753ZM1019.95 540.996L1021.48 542.557C1021.36 542.64 1021.24 542.736 1021.11 542.847C1020.99 542.953 1020.87 543.063 1020.75 543.178C1020.47 543.464 1020.26 543.756 1020.12 544.055C1019.99 544.35 1019.92 544.647 1019.92 544.946C1019.93 545.236 1020 545.526 1020.13 545.816C1020.26 546.106 1020.46 546.389 1020.7 546.666L1020.35 547.073C1019.88 546.603 1019.49 546.122 1019.19 545.63C1018.88 545.137 1018.66 544.647 1018.54 544.159C1018.43 543.666 1018.43 543.194 1018.54 542.743C1018.65 542.288 1018.9 541.873 1019.27 541.5C1019.37 541.399 1019.49 541.3 1019.62 541.203C1019.76 541.102 1019.87 541.033 1019.95 540.996ZM1031.39 541.507L1022.33 532.447L1024 530.776L1034.6 541.383L1033.09 542.895L1031.39 541.507ZM1024.42 544.262L1024.27 544.117C1023.71 543.551 1023.26 542.969 1022.93 542.37C1022.59 541.767 1022.38 541.171 1022.3 540.582C1022.21 539.988 1022.26 539.42 1022.44 538.876C1022.62 538.328 1022.94 537.827 1023.4 537.371C1023.85 536.92 1024.33 536.611 1024.85 536.446C1025.36 536.28 1025.9 536.241 1026.47 536.328C1027.03 536.411 1027.61 536.607 1028.2 536.915C1028.79 537.219 1029.39 537.615 1030 538.103L1030.46 538.566C1030.94 539.159 1031.32 539.749 1031.62 540.333C1031.92 540.918 1032.11 541.491 1032.19 542.053C1032.28 542.614 1032.23 543.155 1032.06 543.676C1031.9 544.191 1031.59 544.677 1031.13 545.133C1030.68 545.584 1030.18 545.897 1029.63 546.072C1029.08 546.242 1028.51 546.283 1027.91 546.196C1027.32 546.109 1026.73 545.901 1026.13 545.575C1025.53 545.243 1024.96 544.806 1024.42 544.262ZM1025.94 542.453L1026.08 542.598C1026.42 542.939 1026.77 543.227 1027.13 543.461C1027.49 543.692 1027.84 543.853 1028.2 543.945C1028.56 544.032 1028.91 544.035 1029.25 543.952C1029.59 543.86 1029.91 543.664 1030.21 543.365C1030.58 542.987 1030.81 542.594 1030.89 542.184C1030.97 541.774 1030.94 541.36 1030.79 540.941C1030.65 540.513 1030.43 540.099 1030.13 539.698L1028.88 538.448C1028.58 538.204 1028.27 538.009 1027.95 537.861C1027.63 537.709 1027.31 537.617 1027 537.585C1026.67 537.548 1026.36 537.587 1026.05 537.702C1025.74 537.808 1025.44 538.004 1025.16 538.289C1024.85 538.593 1024.66 538.915 1024.58 539.256C1024.5 539.597 1024.5 539.949 1024.59 540.313C1024.68 540.672 1024.84 541.033 1025.08 541.397C1025.31 541.76 1025.6 542.113 1025.94 542.453Z" fill="black"/>
</g>
</g>
</g>
<defs>
<filter id="filter0_d_60_425" x="-228.965" y="338.14" width="379.156" height="390.156" filterUnits="userSpaceOnUse" color-interpolation-filters="sRGB">
<feFlood flood-opacity="0" result="BackgroundImageFix"/>
<feColorMatrix in="SourceAlpha" type="matrix" values="0 0 0 0 0 0 0 0 0 0 0 0 0 0 0 0 0 0 127 0" result="hardAlpha"/>
<feOffset dy="15"/>
<feGaussianBlur stdDeviation="2"/>
<feComposite in2="hardAlpha" operator="out"/>
<feColorMatrix type="matrix" values="0 0 0 0 0 0 0 0 0 0 0 0 0 0 0 0 0 0 0.125 0"/>
<feBlend mode="normal" in2="BackgroundImageFix" result="effect1_dropShadow_60_425"/>
<feBlend mode="normal" in="SourceGraphic" in2="effect1_dropShadow_60_425" result="shape"/>
</filter>
<filter id="filter1_d_60_425" x="-48.7463" y="518.358" width="379.156" height="390.156" filterUnits="userSpaceOnUse" color-interpolation-filters="sRGB">
<feFlood flood-opacity="0" result="BackgroundImageFix"/>
<feColorMatrix in="SourceAlpha" type="matrix" values="0 0 0 0 0 0 0 0 0 0 0 0 0 0 0 0 0 0 127 0" result="hardAlpha"/>
<feOffset dy="15"/>
<feGaussianBlur stdDeviation="2"/>
<feComposite in2="hardAlpha" operator="out"/>
<feColorMatrix type="matrix" values="0 0 0 0 0 0 0 0 0 0 0 0 0 0 0 0 0 0 0.125 0"/>
<feBlend mode="normal" in2="BackgroundImageFix" result="effect1_dropShadow_60_425"/>
<feBlend mode="normal" in="SourceGraphic" in2="effect1_dropShadow_60_425" result="shape"/>
</filter>
<filter id="filter2_d_60_425" x="131.472" y="698.576" width="379.156" height="390.156" filterUnits="userSpaceOnUse" color-interpolation-filters="sRGB">
<feFlood flood-opacity="0" result="BackgroundImageFix"/>
<feColorMatrix in="SourceAlpha" type="matrix" values="0 0 0 0 0 0 0 0 0 0 0 0 0 0 0 0 0 0 127 0" result="hardAlpha"/>
<feOffset dy="15"/>
<feGaussianBlur stdDeviation="2"/>
<feComposite in2="hardAlpha" operator="out"/>
<feColorMatrix type="matrix" values="0 0 0 0 0 0 0 0 0 0 0 0 0 0 0 0 0 0 0.125 0"/>
<feBlend mode="normal" in2="BackgroundImageFix" result="effect1_dropShadow_60_425"/>
<feBlend mode="normal" in="SourceGraphic" in2="effect1_dropShadow_60_425" result="shape"/>
</filter>
<filter id="filter3_d_60_425" x="311.861" y="878.966" width="379.156" height="390.156" filterUnits="userSpaceOnUse" color-interpolation-filters="sRGB">
<feFlood flood-opacity="0" result="BackgroundImageFix"/>
<feColorMatrix in="SourceAlpha" type="matrix" values="0 0 0 0 0 0 0 0 0 0 0 0 0 0 0 0 0 0 127 0" result="hardAlpha"/>
<feOffset dy="15"/>
<feGaussianBlur stdDeviation="2"/>
<feComposite in2="hardAlpha" operator="out"/>
<feColorMatrix type="matrix" values="0 0 0 0 0 0 0 0 0 0 0 0 0 0 0 0 0 0 0.125 0"/>
<feBlend mode="normal" in2="BackgroundImageFix" result="effect1_dropShadow_60_425"/>
<feBlend mode="normal" in="SourceGraphic" in2="effect1_dropShadow_60_425" result="shape"/>
</filter>
<filter id="filter4_d_60_425" x="28.1357" y="81.04" width="379.156" height="390.156" filterUnits="userSpaceOnUse" color-interpolation-filters="sRGB">
<feFlood flood-opacity="0" result="BackgroundImageFix"/>
<feColorMatrix in="SourceAlpha" type="matrix" values="0 0 0 0 0 0 0 0 0 0 0 0 0 0 0 0 0 0 127 0" result="hardAlpha"/>
<feOffset dy="15"/>
<feGaussianBlur stdDeviation="2"/>
<feComposite in2="hardAlpha" operator="out"/>
<feColorMatrix type="matrix" values="0 0 0 0 0 0 0 0 0 0 0 0 0 0 0 0 0 0 0.125 0"/>
<feBlend mode="normal" in2="BackgroundImageFix" result="effect1_dropShadow_60_425"/>
<feBlend mode="normal" in="SourceGraphic" in2="effect1_dropShadow_60_425" result="shape"/>
</filter>
<filter id="filter5_d_60_425" x="208.354" y="261.258" width="379.156" height="390.156" filterUnits="userSpaceOnUse" color-interpolation-filters="sRGB">
<feFlood flood-opacity="0" result="BackgroundImageFix"/>
<feColorMatrix in="SourceAlpha" type="matrix" values="0 0 0 0 0 0 0 0 0 0 0 0 0 0 0 0 0 0 127 0" result="hardAlpha"/>
<feOffset dy="15"/>
<feGaussianBlur stdDeviation="2"/>
<feComposite in2="hardAlpha" operator="out"/>
<feColorMatrix type="matrix" values="0 0 0 0 0 0 0 0 0 0 0 0 0 0 0 0 0 0 0.125 0"/>
<feBlend mode="normal" in2="BackgroundImageFix" result="effect1_dropShadow_60_425"/>
<feBlend mode="normal" in="SourceGraphic" in2="effect1_dropShadow_60_425" result="shape"/>
</filter>
<filter id="filter6_d_60_425" x="388.572" y="441.476" width="379.156" height="390.156" filterUnits="userSpaceOnUse" color-interpolation-filters="sRGB">
<feFlood flood-opacity="0" result="BackgroundImageFix"/>
<feColorMatrix in="SourceAlpha" type="matrix" values="0 0 0 0 0 0 0 0 0 0 0 0 0 0 0 0 0 0 127 0" result="hardAlpha"/>
<feOffset dy="15"/>
<feGaussianBlur stdDeviation="2"/>
<feComposite in2="hardAlpha" operator="out"/>
<feColorMatrix type="matrix" values="0 0 0 0 0 0 0 0 0 0 0 0 0 0 0 0 0 0 0.125 0"/>
<feBlend mode="normal" in2="BackgroundImageFix" result="effect1_dropShadow_60_425"/>
<feBlend mode="normal" in="SourceGraphic" in2="effect1_dropShadow_60_425" result="shape"/>
</filter>
<filter id="filter7_d_60_425" x="568.961" y="621.865" width="379.156" height="390.156" filterUnits="userSpaceOnUse" color-interpolation-filters="sRGB">
<feFlood flood-opacity="0" result="BackgroundImageFix"/>
<feColorMatrix in="SourceAlpha" type="matrix" values="0 0 0 0 0 0 0 0 0 0 0 0 0 0 0 0 0 0 127 0" result="hardAlpha"/>
<feOffset dy="15"/>
<feGaussianBlur stdDeviation="2"/>
<feComposite in2="hardAlpha" operator="out"/>
<feColorMatrix type="matrix" values="0 0 0 0 0 0 0 0 0 0 0 0 0 0 0 0 0 0 0.125 0"/>
<feBlend mode="normal" in2="BackgroundImageFix" result="effect1_dropShadow_60_425"/>
<feBlend mode="normal" in="SourceGraphic" in2="effect1_dropShadow_60_425" result="shape"/>
</filter>
<filter id="filter8_d_60_425" x="285.236" y="-176.06" width="379.156" height="390.156" filterUnits="userSpaceOnUse" color-interpolation-filters="sRGB">
<feFlood flood-opacity="0" result="BackgroundImageFix"/>
<feColorMatrix in="SourceAlpha" type="matrix" values="0 0 0 0 0 0 0 0 0 0 0 0 0 0 0 0 0 0 127 0" result="hardAlpha"/>
<feOffset dy="15"/>
<feGaussianBlur stdDeviation="2"/>
<feComposite in2="hardAlpha" operator="out"/>
<feColorMatrix type="matrix" values="0 0 0 0 0 0 0 0 0 0 0 0 0 0 0 0 0 0 0.125 0"/>
<feBlend mode="normal" in2="BackgroundImageFix" result="effect1_dropShadow_60_425"/>
<feBlend mode="normal" in="SourceGraphic" in2="effect1_dropShadow_60_425" result="shape"/>
</filter>
<filter id="filter9_d_60_425" x="465.454" y="4.15784" width="379.155" height="390.155" filterUnits="userSpaceOnUse" color-interpolation-filters="sRGB">
<feFlood flood-opacity="0" result="BackgroundImageFix"/>
<feColorMatrix in="SourceAlpha" type="matrix" values="0 0 0 0 0 0 0 0 0 0 0 0 0 0 0 0 0 0 127 0" result="hardAlpha"/>
<feOffset dy="15"/>
<feGaussianBlur stdDeviation="2"/>
<feComposite in2="hardAlpha" operator="out"/>
<feColorMatrix type="matrix" values="0 0 0 0 0 0 0 0 0 0 0 0 0 0 0 0 0 0 0.125 0"/>
<feBlend mode="normal" in2="BackgroundImageFix" result="effect1_dropShadow_60_425"/>
<feBlend mode="normal" in="SourceGraphic" in2="effect1_dropShadow_60_425" result="shape"/>
</filter>
<filter id="filter10_d_60_425" x="645.672" y="184.376" width="379.156" height="390.156" filterUnits="userSpaceOnUse" color-interpolation-filters="sRGB">
<feFlood flood-opacity="0" result="BackgroundImageFix"/>
<feColorMatrix in="SourceAlpha" type="matrix" values="0 0 0 0 0 0 0 0 0 0 0 0 0 0 0 0 0 0 127 0" result="hardAlpha"/>
<feOffset dy="15"/>
<feGaussianBlur stdDeviation="2"/>
<feComposite in2="hardAlpha" operator="out"/>
<feColorMatrix type="matrix" values="0 0 0 0 0 0 0 0 0 0 0 0 0 0 0 0 0 0 0.125 0"/>
<feBlend mode="normal" in2="BackgroundImageFix" result="effect1_dropShadow_60_425"/>
<feBlend mode="normal" in="SourceGraphic" in2="effect1_dropShadow_60_425" result="shape"/>
</filter>
<filter id="filter11_d_60_425" x="826.062" y="364.765" width="379.156" height="390.156" filterUnits="userSpaceOnUse" color-interpolation-filters="sRGB">
<feFlood flood-opacity="0" result="BackgroundImageFix"/>
<feColorMatrix in="SourceAlpha" type="matrix" values="0 0 0 0 0 0 0 0 0 0 0 0 0 0 0 0 0 0 127 0" result="hardAlpha"/>
<feOffset dy="15"/>
<feGaussianBlur stdDeviation="2"/>
<feComposite in2="hardAlpha" operator="out"/>
<feColorMatrix type="matrix" values="0 0 0 0 0 0 0 0 0 0 0 0 0 0 0 0 0 0 0.125 0"/>
<feBlend mode="normal" in2="BackgroundImageFix" result="effect1_dropShadow_60_425"/>
<feBlend mode="normal" in="SourceGraphic" in2="effect1_dropShadow_60_425" result="shape"/>
</filter>
<linearGradient id="paint0_linear_60_425" x1="-227.602" y1="528.244" x2="94.591" y2="850.437" gradientUnits="userSpaceOnUse">
<stop stop-color="#D0F9FF"/>
<stop offset="1" stop-color="#889BFF"/>
</linearGradient>
<linearGradient id="paint1_linear_60_425" x1="-47.3837" y1="708.462" x2="274.809" y2="1030.66" gradientUnits="userSpaceOnUse">
<stop stop-color="#FFD0D0"/>
<stop offset="1" stop-color="#FF9D88"/>
</linearGradient>
<linearGradient id="paint2_linear_60_425" x1="132.835" y1="888.68" x2="455.028" y2="1210.87" gradientUnits="userSpaceOnUse">
<stop stop-color="#D0F7FF"/>
<stop offset="1" stop-color="#FF88F3"/>
</linearGradient>
<linearGradient id="paint3_linear_60_425" x1="313.224" y1="1069.07" x2="635.417" y2="1391.26" gradientUnits="userSpaceOnUse">
<stop stop-color="#D4D0FF"/>
<stop offset="1" stop-color="#88A2FF"/>
</linearGradient>
<linearGradient id="paint4_linear_60_425" x1="29.4983" y1="271.144" x2="351.691" y2="593.337" gradientUnits="userSpaceOnUse">
<stop stop-color="#FFD0FD"/>
<stop offset="1" stop-color="#CB88FF"/>
</linearGradient>
<linearGradient id="paint5_linear_60_425" x1="209.717" y1="451.362" x2="531.91" y2="773.555" gradientUnits="userSpaceOnUse">
<stop stop-color="#DCFFD0"/>
<stop offset="1" stop-color="#99FF88"/>
</linearGradient>
<linearGradient id="paint6_linear_60_425" x1="389.935" y1="631.58" x2="712.128" y2="953.773" gradientUnits="userSpaceOnUse">
<stop stop-color="#FFD6D0"/>
<stop offset="1" stop-color="#D9FF88"/>
</linearGradient>
<linearGradient id="paint7_linear_60_425" x1="570.324" y1="811.969" x2="892.517" y2="1134.16" gradientUnits="userSpaceOnUse">
<stop stop-color="#DFFFD0"/>
<stop offset="1" stop-color="#88FFE2"/>
</linearGradient>
<linearGradient id="paint8_linear_60_425" x1="286.598" y1="14.0434" x2="608.791" y2="336.236" gradientUnits="userSpaceOnUse">
<stop stop-color="#D0FFDD"/>
<stop offset="1" stop-color="#FFCF88"/>
</linearGradient>
<linearGradient id="paint9_linear_60_425" x1="466.817" y1="194.262" x2="789.01" y2="516.455" gradientUnits="userSpaceOnUse">
<stop stop-color="#FFD0EC"/>
<stop offset="1" stop-color="#FF888F"/>
</linearGradient>
<linearGradient id="paint10_linear_60_425" x1="647.035" y1="374.48" x2="969.228" y2="696.673" gradientUnits="userSpaceOnUse">
<stop stop-color="#FFD0D0"/>
<stop offset="1" stop-color="#88C6FF"/>
</linearGradient>
<linearGradient id="paint11_linear_60_425" x1="827.424" y1="554.869" x2="1149.62" y2="877.062" gradientUnits="userSpaceOnUse">
<stop stop-color="#FFD0EC"/>
<stop offset="1" stop-color="#BC88FF"/>
</linearGradient>
<clipPath id="clip0_60_425">
<rect width="1024" height="1024" fill="white"/>
</clipPath>
<clipPath id="clip1_60_425">
<rect width="1563.09" height="1531.04" fill="white" transform="translate(-699 457.268) rotate(-45)"/>
</clipPath>
</defs>
</svg>
